<svg width="24" height="24" viewBox="0 0 24 24" version="1.1" xmlns="http://www.w3.org/2000/svg" xmlns:xlink="http://www.w3.org/1999/xlink">
<g id="Canvas" fill="none">
<g id="ic/24/social/facebook">
<path id="Shape" fill-rule="evenodd" clip-rule="evenodd" d="M 16.5 0L 1.5 0C 0.659912 0 0 0.660034 0 1.5L 0 16.5C 0 17.34 0.659912 18 1.5 18L 8.3999 18L 12 18L 16.5 18C 17.3401 18 18 17.34 18 16.5L 18 1.5C 18 0.660034 17.3401 0 16.5 0ZM 9.052 11.2609L 6.80005 11.2609L 6.80005 8.96521L 9.052 8.96521L 9.052 6.95654C 9.052 5.32092 10.2905 3.94348 11.8667 3.80005L 14.4001 3.80005L 14.4001 6.0957L 12.1482 6.0957C 11.6697 6.0957 11.3037 6.46875 11.3037 6.95654L 11.3037 8.96521L 14.1187 8.96521L 14.1187 11.2609L 11.3037 11.2609L 11.3037 17.2001L 9.052 17.2001L 9.052 11.2609ZM 11.9287 17.2001L 16.3215 17.2001C 16.8193 17.2001 17.2 16.8193 17.2002 16.3215L 17.2002 1.67859C 17.2002 1.18079 16.8193 0.800049 16.3215 0.800049L 1.67871 0.800049C 1.18066 0.800049 0.800049 1.18079 0.800049 1.67859L 0.800049 16.3215C 0.800049 16.8193 1.18066 17.2001 1.67871 17.2001L 8.41431 17.2001L 8.41431 11.9286L 6.07153 11.9286L 6.07153 8.41431L 8.41431 8.41431L 8.41431 6.95007C 8.41431 4.98792 9.93726 3.3186 11.8994 3.14294L 15.1501 3.14294L 15.1501 6.65723L 12.2214 6.65723C 12.0457 6.65723 11.9287 6.77429 11.9287 6.95007L 11.9287 8.41431L 14.8572 8.41431L 14.8572 11.9286L 11.9287 11.9286L 11.9287 17.2001Z" transform="translate(3 3)" fill="white"/>
<mask id="mask0" mask-type="alpha" maskUnits="userSpaceOnUse" x="3" y="3" width="18" height="18">
<path id="Shape_2" fill-rule="evenodd" clip-rule="evenodd" d="M 16.5 0L 1.5 0C 0.659912 0 0 0.660034 0 1.5L 0 16.5C 0 17.34 0.659912 18 1.5 18L 8.3999 18L 12 18L 16.5 18C 17.3401 18 18 17.34 18 16.5L 18 1.5C 18 0.660034 17.3401 0 16.5 0ZM 9.052 11.2609L 6.80005 11.2609L 6.80005 8.96521L 9.052 8.96521L 9.052 6.95654C 9.052 5.32092 10.2905 3.94348 11.8667 3.80005L 14.4001 3.80005L 14.4001 6.0957L 12.1482 6.0957C 11.6697 6.0957 11.3037 6.46875 11.3037 6.95654L 11.3037 8.96521L 14.1187 8.96521L 14.1187 11.2609L 11.3037 11.2609L 11.3037 17.2001L 9.052 17.2001L 9.052 11.2609ZM 11.9287 17.2001L 16.3215 17.2001C 16.8193 17.2001 17.2 16.8193 17.2002 16.3215L 17.2002 1.67859C 17.2002 1.18079 16.8193 0.800049 16.3215 0.800049L 1.67871 0.800049C 1.18066 0.800049 0.800049 1.18079 0.800049 1.67859L 0.800049 16.3215C 0.800049 16.8193 1.18066 17.2001 1.67871 17.2001L 8.41431 17.2001L 8.41431 11.9286L 6.07153 11.9286L 6.07153 8.41431L 8.41431 8.41431L 8.41431 6.95007C 8.41431 4.98792 9.93726 3.3186 11.8994 3.14294L 15.1501 3.14294L 15.1501 6.65723L 12.2214 6.65723C 12.0457 6.65723 11.9287 6.77429 11.9287 6.95007L 11.9287 8.41431L 14.8572 8.41431L 14.8572 11.9286L 11.9287 11.9286L 11.9287 17.2001Z" transform="translate(3 3)" fill="white"/>
</mask>
<g mask="url(#mask0)">
</g>
</g>
</g>
</svg>
