<svg width="24" height="24" viewBox="0 0 24 24" version="1.1" xmlns="http://www.w3.org/2000/svg" xmlns:xlink="http://www.w3.org/1999/xlink">
<g id="Canvas" fill="none">
<g id="ic/24/social/twitter">
<path id="Shape" fill-rule="evenodd" clip-rule="evenodd" d="M 17.5303 1.59489C 17.6526 1.56364 17.8052 1.59489 17.897 1.68864C 17.9885 1.78239 18.0191 1.93864 17.9885 2.06364C 17.7136 2.96977 17.1636 3.62602 16.4915 3.96977L 16.4915 4.0634C 16.4915 10.0942 12.0921 15 6.71486 15C 3.6902 15 1.24611 14.4688 0.146254 13.5627C 0.0239397 13.4377 -0.0370955 13.2814 0.0239397 13.0939C 0.0849748 12.9377 0.237807 12.8127 0.421156 12.8127C 2.22365 12.7814 3.38478 12.344 4.27077 11.8128C 2.55983 11.594 1.49049 10.7504 0.940444 9.15678C 0.879408 9.00053 0.940444 8.84428 1.06276 8.75053C 1.18483 8.65678 1.36818 8.65678 1.49049 8.71928C 1.94874 9.03178 2.407 9.09428 2.95705 9.09428C 1.79591 8.37566 0.726576 7.18816 0.298842 5.71953C 0.276869 5.60686 0.302504 5.47795 0.364272 5.3914C 0.388198 5.35796 0.417494 5.33086 0.451674 5.3134C 0.604506 5.21965 0.757094 5.2509 0.879408 5.34465C 1.21559 5.62578 1.58205 5.81328 2.13209 5.90703C 0.940444 4.65715 0.207289 2.81352 1.24611 0.782516L 1.42946 0.407516L 1.73488 0.720016C 3.62916 2.75102 5.37062 3.68852 8.54787 4.3134L 8.54787 4.1884C 8.54787 1.90739 10.2893 0.0325162 12.4585 0.0012662C 13.314 0.0012662 14.5056 0.626266 14.9944 0.907516C 15.0249 0.907516 15.0554 0.938766 15.0554 0.907516C 15.6665 0.720016 16.3999 0.407516 17.2551 0.0325162C 17.3775 -0.0299838 17.5303 0.0012662 17.6218 0.0950162C 17.7136 0.188766 17.7442 0.313766 17.6831 0.470016C 17.5303 0.907516 17.2859 1.37627 16.9192 1.81364L 17.5303 1.59489ZM 15.7356 3.73784L 15.9133 3.67741C 16.4766 3.46623 16.8025 3.01347 17.01 2.62126L 15.8543 3.0136C 15.7061 3.0739 15.5281 3.0136 15.4688 2.86272C 15.4094 2.71172 15.4392 2.53069 15.5579 2.44011C 16.032 2.04778 16.3877 1.62529 16.6543 1.17265C 16.0615 1.41399 15.5281 1.62529 15.0835 1.77617C 14.9705 1.8145 14.8574 1.81633 14.7444 1.78935C 14.6797 1.77385 14.6148 1.74882 14.5501 1.71587C 14.2239 1.53471 13.0977 0.900924 12.416 0.931198C 10.6375 0.961349 9.21486 2.50053 9.21486 4.37163L 9.21486 5.2166L 8.85915 5.1563C 5.59865 4.55266 3.79054 3.67741 1.89357 1.77617C 1.00441 4.06975 2.84205 5.66936 3.46461 6.12199L 4.20558 6.66521L 3.28663 6.66521C 2.69386 6.66521 2.04176 6.6049 1.44899 6.3333C 2.10109 7.72148 3.43483 8.7476 4.56129 9.07964L 4.47243 9.68315C 4.23512 9.68315 3.99806 9.68315 3.761 9.7133C 3.13844 9.74358 2.57545 9.74358 2.04176 9.56242C 2.63478 10.7093 3.67213 11.1922 5.36159 11.1922L 6.25075 11.1922L 5.50978 11.7354C 4.59083 12.4596 3.40529 13.1236 1.36012 13.2746C 2.33815 13.7574 4.14625 14.2101 6.84352 14.2101C 11.4649 14.2101 15.7356 9.49907 15.7356 4.2509L 15.7356 3.73784Z" transform="translate(3 4.5)" fill="white"/>
<mask id="mask0" mask-type="alpha" maskUnits="userSpaceOnUse" x="3" y="4" width="18" height="16">
<path id="Shape_2" fill-rule="evenodd" clip-rule="evenodd" d="M 17.5303 1.59489C 17.6526 1.56364 17.8052 1.59489 17.897 1.68864C 17.9885 1.78239 18.0191 1.93864 17.9885 2.06364C 17.7136 2.96977 17.1636 3.62602 16.4915 3.96977L 16.4915 4.0634C 16.4915 10.0942 12.0921 15 6.71486 15C 3.6902 15 1.24611 14.4688 0.146254 13.5627C 0.0239397 13.4377 -0.0370955 13.2814 0.0239397 13.0939C 0.0849748 12.9377 0.237807 12.8127 0.421156 12.8127C 2.22365 12.7814 3.38478 12.344 4.27077 11.8128C 2.55983 11.594 1.49049 10.7504 0.940444 9.15678C 0.879408 9.00053 0.940444 8.84428 1.06276 8.75053C 1.18483 8.65678 1.36818 8.65678 1.49049 8.71928C 1.94874 9.03178 2.407 9.09428 2.95705 9.09428C 1.79591 8.37566 0.726576 7.18816 0.298842 5.71953C 0.276869 5.60686 0.302504 5.47795 0.364272 5.3914C 0.388198 5.35796 0.417494 5.33086 0.451674 5.3134C 0.604506 5.21965 0.757094 5.2509 0.879408 5.34465C 1.21559 5.62578 1.58205 5.81328 2.13209 5.90703C 0.940444 4.65715 0.207289 2.81352 1.24611 0.782516L 1.42946 0.407516L 1.73488 0.720016C 3.62916 2.75102 5.37062 3.68852 8.54787 4.3134L 8.54787 4.1884C 8.54787 1.90739 10.2893 0.0325162 12.4585 0.0012662C 13.314 0.0012662 14.5056 0.626266 14.9944 0.907516C 15.0249 0.907516 15.0554 0.938766 15.0554 0.907516C 15.6665 0.720016 16.3999 0.407516 17.2551 0.0325162C 17.3775 -0.0299838 17.5303 0.0012662 17.6218 0.0950162C 17.7136 0.188766 17.7442 0.313766 17.6831 0.470016C 17.5303 0.907516 17.2859 1.37627 16.9192 1.81364L 17.5303 1.59489ZM 15.7356 3.73784L 15.9133 3.67741C 16.4766 3.46623 16.8025 3.01347 17.01 2.62126L 15.8543 3.0136C 15.7061 3.0739 15.5281 3.0136 15.4688 2.86272C 15.4094 2.71172 15.4392 2.53069 15.5579 2.44011C 16.032 2.04778 16.3877 1.62529 16.6543 1.17265C 16.0615 1.41399 15.5281 1.62529 15.0835 1.77617C 14.9705 1.8145 14.8574 1.81633 14.7444 1.78935C 14.6797 1.77385 14.6148 1.74882 14.5501 1.71587C 14.2239 1.53471 13.0977 0.900924 12.416 0.931198C 10.6375 0.961349 9.21486 2.50053 9.21486 4.37163L 9.21486 5.2166L 8.85915 5.1563C 5.59865 4.55266 3.79054 3.67741 1.89357 1.77617C 1.00441 4.06975 2.84205 5.66936 3.46461 6.12199L 4.20558 6.66521L 3.28663 6.66521C 2.69386 6.66521 2.04176 6.6049 1.44899 6.3333C 2.10109 7.72148 3.43483 8.7476 4.56129 9.07964L 4.47243 9.68315C 4.23512 9.68315 3.99806 9.68315 3.761 9.7133C 3.13844 9.74358 2.57545 9.74358 2.04176 9.56242C 2.63478 10.7093 3.67213 11.1922 5.36159 11.1922L 6.25075 11.1922L 5.50978 11.7354C 4.59083 12.4596 3.40529 13.1236 1.36012 13.2746C 2.33815 13.7574 4.14625 14.2101 6.84352 14.2101C 11.4649 14.2101 15.7356 9.49907 15.7356 4.2509L 15.7356 3.73784Z" transform="translate(3 4.5)" fill="white"/>
</mask>
<g mask="url(#mask0)">
</g>
</g>
</g>
</svg>
